<?xml version="1.0" encoding="utf-8" ?>
<svg xmlns="http://www.w3.org/2000/svg" xmlns:xlink="http://www.w3.org/1999/xlink" width="1920" height="1080">
	<clipPath id="cl_d">
		<rect width="1920" height="1080"/>
	</clipPath>
	<g clip-path="url(#cl_d)">
		<path fill="none" stroke="black" stroke-width="2.5" stroke-linecap="round" stroke-linejoin="round" transform="matrix(1 0 0 -1 15.5078 16.1107)" d="M-12.1409 10.7751C-9.72699 12.3845 -6.53485 12.6403 -5.89075 8.77515C-5.14246 4.28479 -9.65002 0.858582 -10.7748 -3.26532C-11.1501 -4.64154 -11.7527 -7.31287 -10.1631 -8.70294C-9.14182 -9.59611 -7.96645 -9.48896 -6.8726 -8.96023"/>
		<path fill="white" transform="matrix(-0.0856355 -0.996327 -0.996327 0.0856355 18.2503 23.9913)" d="M-0.95711 7.95696L-1.95711 6.95696C-2.14464 6.76942 -2.25 6.51507 -2.25 6.24985L-2.25 -6.3359C-2.25 -6.8882 -1.80228 -7.3359 -1.25 -7.3359L0.75 -7.3359C1.30228 -7.3359 1.75 -6.8882 1.75 -6.3359L1.75 6.24985C1.75 6.51507 1.64464 6.76942 1.45711 6.95696L0.45711 7.95696C0.0665801 8.34748 -0.56658 8.34748 -0.95711 7.95696Z"/>
		<path fill="none" stroke="black" stroke-width="2.5" stroke-miterlimit="10" transform="matrix(-0.0856355 -0.996327 -0.996327 0.0856355 18.2503 23.9913)" d="M-0.95711 7.95696L-1.95711 6.95696C-2.14464 6.76942 -2.25 6.51507 -2.25 6.24985L-2.25 -6.3359C-2.25 -6.8882 -1.80228 -7.3359 -1.25 -7.3359L0.75 -7.3359C1.30228 -7.3359 1.75 -6.8882 1.75 -6.3359L1.75 6.24985C1.75 6.51507 1.64464 6.76942 1.45711 6.95696L0.45711 7.95696C0.0665801 8.34748 -0.56658 8.34748 -0.95711 7.95696Z"/>
	</g>
</svg>
