<?xml version="1.0" encoding="utf-8" ?>
<svg xmlns="http://www.w3.org/2000/svg" xmlns:xlink="http://www.w3.org/1999/xlink" width="1920" height="1080">
	<clipPath id="cl_23">
		<rect width="1920" height="1080"/>
	</clipPath>
	<g clip-path="url(#cl_23)">
		<path fill="none" stroke="black" stroke-width="2.5" stroke-linecap="round" stroke-linejoin="round" transform="matrix(1 0 0 -1 15.5078 16.1107)" d="M-12.1409 10.7751C-9.72699 12.3845 -6.53485 12.6403 -5.89075 8.77515C-5.14246 4.28479 -9.65002 0.858582 -10.7748 -3.26532C-11.1501 -4.64154 -11.7527 -7.31287 -10.1631 -8.70294C-7.71544 -10.8435 -4.38298 -7.23855 -3.4082 -5.85468C-0.152649 -1.23285 1.44733 11.0872 8.22119 9.77515C10.6074 9.31296 11.805 3.8772 9.03375 -0.0509033C7.01359 -2.91439 4.48737 -4.43286 3.68982 -6.85468C3.28123 -8.09538 2.70115 -8.94844 3.68982 -9.99762C7.07224 -13.5871 10.1811 -2.33107 13.1409 -11.386" fill-rule="evenodd"/>
		<path fill="white" fill-opacity="0.33333334" transform="matrix(0.0202116 -0.999796 -0.999796 -0.0202116 38.3828 27.3732)" d="M-0.95711 7.95696L-1.95711 6.95696C-2.14464 6.76942 -2.25 6.51507 -2.25 6.24985L-2.25 -6.3359C-2.25 -6.8882 -1.80228 -7.3359 -1.25 -7.3359L0.75 -7.3359C1.30228 -7.3359 1.75 -6.8882 1.75 -6.3359L1.75 6.24985C1.75 6.51507 1.64464 6.76942 1.45711 6.95696L0.45711 7.95696C0.0665801 8.34748 -0.56658 8.34748 -0.95711 7.95696Z"/>
		<path fill="none" stroke="black" stroke-width="2.5" stroke-miterlimit="10" stroke-opacity="0.33333334" transform="matrix(0.0202116 -0.999796 -0.999796 -0.0202116 38.3828 27.3732)" d="M-0.95711 7.95696L-1.95711 6.95696C-2.14464 6.76942 -2.25 6.51507 -2.25 6.24985L-2.25 -6.3359C-2.25 -6.8882 -1.80228 -7.3359 -1.25 -7.3359L0.75 -7.3359C1.30228 -7.3359 1.75 -6.8882 1.75 -6.3359L1.75 6.24985C1.75 6.51507 1.64464 6.76942 1.45711 6.95696L0.45711 7.95696C0.0665801 8.34748 -0.56658 8.34748 -0.95711 7.95696Z"/>
	</g>
</svg>
