<?xml version="1.0" encoding="utf-8" ?>
<svg xmlns="http://www.w3.org/2000/svg" xmlns:xlink="http://www.w3.org/1999/xlink" width="1920" height="1080">
	<clipPath id="cl_7">
		<rect width="1920" height="1080"/>
	</clipPath>
	<g clip-path="url(#cl_7)">
		<path fill="none" stroke="black" stroke-width="2.5" stroke-linecap="round" stroke-linejoin="round" transform="matrix(1 0 0 -1 15.5078 16.1107)" d="M-12.1409 10.7751C-9.72699 12.3845 -6.53485 12.6403 -5.89075 8.77515C-5.65635 7.3686 -5.93765 6.06646 -6.46915 4.81459"/>
		<path fill="white" transform="matrix(0.777517 -0.628862 -0.628862 -0.777517 15.2463 18.5721)" d="M-0.95711 7.95696L-1.95711 6.95696C-2.14464 6.76942 -2.25 6.51507 -2.25 6.24985L-2.25 -6.3359C-2.25 -6.8882 -1.80228 -7.3359 -1.25 -7.3359L0.75 -7.3359C1.30228 -7.3359 1.75 -6.8882 1.75 -6.3359L1.75 6.24985C1.75 6.51507 1.64464 6.76942 1.45711 6.95696L0.45711 7.95696C0.0665801 8.34748 -0.56658 8.34748 -0.95711 7.95696Z"/>
		<path fill="none" stroke="black" stroke-width="2.5" stroke-miterlimit="10" transform="matrix(0.777517 -0.628862 -0.628862 -0.777517 15.2463 18.5721)" d="M-0.95711 7.95696L-1.95711 6.95696C-2.14464 6.76942 -2.25 6.51507 -2.25 6.24985L-2.25 -6.3359C-2.25 -6.8882 -1.80228 -7.3359 -1.25 -7.3359L0.75 -7.3359C1.30228 -7.3359 1.75 -6.8882 1.75 -6.3359L1.75 6.24985C1.75 6.51507 1.64464 6.76942 1.45711 6.95696L0.45711 7.95696C0.0665801 8.34748 -0.56658 8.34748 -0.95711 7.95696Z"/>
	</g>
</svg>
