<svg width="32" height="32" viewBox="0 0 32 32" fill="none" xmlns="http://www.w3.org/2000/svg">
<path d="M7.5 24.5L13.25 19.75L13.4332 19.5987M24.5 19.5L19.6363 15.5206C19.2666 15.2181 18.7345 15.2193 18.3662 15.5236L13.4332 19.5987M17 16.6522C17 14.9953 15.6569 13.6522 14 13.6522C12.3431 13.6522 11 14.9953 11 16.6522C11 18.1152 12.0473 19.3337 13.4332 19.5987M7 8V24.0001C7 24.5524 7.44772 25.0001 8 25.0001H24C24.5523 25.0001 25 24.5524 25 24.0001V8C25 7.44772 24.5523 7 24 7H8C7.44772 7 7 7.44772 7 8Z" stroke="black" stroke-width="2.5" stroke-linecap="round"/>
</svg>
