<svg width="32" height="32" viewBox="0 0 32 32" fill="none" xmlns="http://www.w3.org/2000/svg">
<path d="M20.6569 20.6569C23.781 17.5327 23.781 12.4673 20.6569 9.34315C17.5327 6.21895 12.4673 6.21895 9.34315 9.34315C6.21895 12.4673 6.21895 17.5327 9.34315 20.6569C12.4673 23.781 17.5327 23.781 20.6569 20.6569ZM20.6569 20.6569L25 25M11 15H15H19M23 15C23 19.4183 19.4183 23 15 23C10.5817 23 7.00001 19.4183 7.00001 15C7.00001 10.5817 10.5817 7 15 7C19.4183 7 23 10.5817 23 15Z" stroke="black" stroke-width="2.5" stroke-linecap="round"/>
</svg>
